<mxfile host="app.diagrams.net" modified="2021-11-10T09:48:26.078Z" agent="5.0 (Macintosh; Intel Mac OS X 10_15_7) AppleWebKit/605.1.15 (KHTML, like Gecko) Version/15.1 Safari/605.1.15" etag="9S9O6K-GVtylG5FwIk0I" version="15.7.1" type="github">
  <diagram id="C5RBs43oDa-KdzZeNtuy" name="Page-1">
    <mxGraphModel dx="1563" dy="864" grid="1" gridSize="10" guides="1" tooltips="1" connect="1" arrows="1" fold="1" page="1" pageScale="1" pageWidth="1169" pageHeight="827" math="0" shadow="0">
      <root>
        <mxCell id="WIyWlLk6GJQsqaUBKTNV-0" />
        <mxCell id="WIyWlLk6GJQsqaUBKTNV-1" parent="WIyWlLk6GJQsqaUBKTNV-0" />
        <mxCell id="rqy-Io2G6okiwX-aT2eN-5" style="edgeStyle=orthogonalEdgeStyle;rounded=0;orthogonalLoop=1;jettySize=auto;html=1;entryX=0.5;entryY=0;entryDx=0;entryDy=0;" edge="1" parent="WIyWlLk6GJQsqaUBKTNV-1" target="rqy-Io2G6okiwX-aT2eN-1">
          <mxGeometry relative="1" as="geometry">
            <mxPoint x="955" y="190" as="sourcePoint" />
            <Array as="points">
              <mxPoint x="620" y="190" />
              <mxPoint x="305" y="190" />
            </Array>
          </mxGeometry>
        </mxCell>
        <mxCell id="rqy-Io2G6okiwX-aT2eN-6" style="edgeStyle=orthogonalEdgeStyle;rounded=0;orthogonalLoop=1;jettySize=auto;html=1;entryX=0.5;entryY=0;entryDx=0;entryDy=0;" edge="1" parent="WIyWlLk6GJQsqaUBKTNV-1" target="rqy-Io2G6okiwX-aT2eN-2">
          <mxGeometry relative="1" as="geometry">
            <mxPoint x="620" y="160" as="sourcePoint" />
            <Array as="points">
              <mxPoint x="620" y="190" />
              <mxPoint x="505" y="190" />
            </Array>
          </mxGeometry>
        </mxCell>
        <mxCell id="rqy-Io2G6okiwX-aT2eN-7" style="edgeStyle=orthogonalEdgeStyle;rounded=0;orthogonalLoop=1;jettySize=auto;html=1;entryX=0.5;entryY=0;entryDx=0;entryDy=0;" edge="1" parent="WIyWlLk6GJQsqaUBKTNV-1" target="rqy-Io2G6okiwX-aT2eN-3">
          <mxGeometry relative="1" as="geometry">
            <mxPoint x="620" y="160" as="sourcePoint" />
            <Array as="points">
              <mxPoint x="620" y="190" />
              <mxPoint x="719" y="190" />
            </Array>
          </mxGeometry>
        </mxCell>
        <mxCell id="rqy-Io2G6okiwX-aT2eN-8" style="edgeStyle=orthogonalEdgeStyle;rounded=0;orthogonalLoop=1;jettySize=auto;html=1;entryX=0.5;entryY=0;entryDx=0;entryDy=0;exitX=0.5;exitY=1;exitDx=0;exitDy=0;" edge="1" parent="WIyWlLk6GJQsqaUBKTNV-1" source="rqy-Io2G6okiwX-aT2eN-37" target="rqy-Io2G6okiwX-aT2eN-4">
          <mxGeometry relative="1" as="geometry">
            <mxPoint x="620" y="160" as="sourcePoint" />
            <Array as="points">
              <mxPoint x="620" y="190" />
              <mxPoint x="955" y="190" />
            </Array>
          </mxGeometry>
        </mxCell>
        <mxCell id="rqy-Io2G6okiwX-aT2eN-38" style="edgeStyle=orthogonalEdgeStyle;rounded=0;orthogonalLoop=1;jettySize=auto;html=1;exitX=0.5;exitY=1;exitDx=0;exitDy=0;entryX=0.5;entryY=0;entryDx=0;entryDy=0;endArrow=none;endFill=0;" edge="1" parent="WIyWlLk6GJQsqaUBKTNV-1" target="rqy-Io2G6okiwX-aT2eN-37">
          <mxGeometry relative="1" as="geometry">
            <mxPoint x="620" y="100" as="sourcePoint" />
          </mxGeometry>
        </mxCell>
        <mxCell id="rqy-Io2G6okiwX-aT2eN-0" value="WeProduce@UrPace&lt;br&gt;GmbH" style="rounded=0;whiteSpace=wrap;html=1;" vertex="1" parent="WIyWlLk6GJQsqaUBKTNV-1">
          <mxGeometry x="537.5" y="40" width="170" height="60" as="geometry" />
        </mxCell>
        <mxCell id="rqy-Io2G6okiwX-aT2eN-21" style="edgeStyle=orthogonalEdgeStyle;rounded=0;orthogonalLoop=1;jettySize=auto;html=1;entryX=0;entryY=0.5;entryDx=0;entryDy=0;" edge="1" parent="WIyWlLk6GJQsqaUBKTNV-1" source="rqy-Io2G6okiwX-aT2eN-1" target="rqy-Io2G6okiwX-aT2eN-2">
          <mxGeometry relative="1" as="geometry">
            <Array as="points">
              <mxPoint x="395" y="250" />
              <mxPoint x="395" y="250" />
            </Array>
          </mxGeometry>
        </mxCell>
        <mxCell id="rqy-Io2G6okiwX-aT2eN-1" value="Bestelleingangs Abteilung &amp;nbsp;&lt;br&gt;-Organisationseinheit" style="rounded=0;whiteSpace=wrap;html=1;" vertex="1" parent="WIyWlLk6GJQsqaUBKTNV-1">
          <mxGeometry x="215" y="220" width="120" height="60" as="geometry" />
        </mxCell>
        <mxCell id="rqy-Io2G6okiwX-aT2eN-22" style="edgeStyle=orthogonalEdgeStyle;rounded=0;orthogonalLoop=1;jettySize=auto;html=1;entryX=0.5;entryY=0;entryDx=0;entryDy=0;" edge="1" parent="WIyWlLk6GJQsqaUBKTNV-1" source="rqy-Io2G6okiwX-aT2eN-2" target="rqy-Io2G6okiwX-aT2eN-10">
          <mxGeometry relative="1" as="geometry">
            <Array as="points">
              <mxPoint x="505" y="310" />
              <mxPoint x="195" y="310" />
            </Array>
          </mxGeometry>
        </mxCell>
        <mxCell id="rqy-Io2G6okiwX-aT2eN-23" style="edgeStyle=orthogonalEdgeStyle;rounded=0;orthogonalLoop=1;jettySize=auto;html=1;entryX=0.5;entryY=0;entryDx=0;entryDy=0;" edge="1" parent="WIyWlLk6GJQsqaUBKTNV-1" source="rqy-Io2G6okiwX-aT2eN-2" target="rqy-Io2G6okiwX-aT2eN-9">
          <mxGeometry relative="1" as="geometry">
            <Array as="points">
              <mxPoint x="505" y="310" />
              <mxPoint x="355" y="310" />
            </Array>
          </mxGeometry>
        </mxCell>
        <mxCell id="rqy-Io2G6okiwX-aT2eN-2" value="Lager Abteilung-Organisationseinheit" style="rounded=0;whiteSpace=wrap;html=1;" vertex="1" parent="WIyWlLk6GJQsqaUBKTNV-1">
          <mxGeometry x="445" y="220" width="120" height="60" as="geometry" />
        </mxCell>
        <mxCell id="rqy-Io2G6okiwX-aT2eN-27" style="edgeStyle=orthogonalEdgeStyle;rounded=0;orthogonalLoop=1;jettySize=auto;html=1;entryX=0;entryY=0.5;entryDx=0;entryDy=0;" edge="1" parent="WIyWlLk6GJQsqaUBKTNV-1" source="rqy-Io2G6okiwX-aT2eN-3" target="rqy-Io2G6okiwX-aT2eN-4">
          <mxGeometry relative="1" as="geometry" />
        </mxCell>
        <mxCell id="rqy-Io2G6okiwX-aT2eN-3" value="Qualitätskontrolle&lt;br&gt;-Organisationseinheit" style="rounded=0;whiteSpace=wrap;html=1;" vertex="1" parent="WIyWlLk6GJQsqaUBKTNV-1">
          <mxGeometry x="659" y="220" width="120" height="60" as="geometry" />
        </mxCell>
        <mxCell id="rqy-Io2G6okiwX-aT2eN-15" style="edgeStyle=orthogonalEdgeStyle;rounded=0;orthogonalLoop=1;jettySize=auto;html=1;entryX=0.5;entryY=0;entryDx=0;entryDy=0;" edge="1" parent="WIyWlLk6GJQsqaUBKTNV-1" source="rqy-Io2G6okiwX-aT2eN-4" target="rqy-Io2G6okiwX-aT2eN-14">
          <mxGeometry relative="1" as="geometry" />
        </mxCell>
        <mxCell id="rqy-Io2G6okiwX-aT2eN-16" style="edgeStyle=orthogonalEdgeStyle;rounded=0;orthogonalLoop=1;jettySize=auto;html=1;entryX=0.5;entryY=0;entryDx=0;entryDy=0;" edge="1" parent="WIyWlLk6GJQsqaUBKTNV-1" source="rqy-Io2G6okiwX-aT2eN-4" target="rqy-Io2G6okiwX-aT2eN-13">
          <mxGeometry relative="1" as="geometry" />
        </mxCell>
        <mxCell id="rqy-Io2G6okiwX-aT2eN-4" value="Logistikabteilung&lt;br&gt;-Organisationseinheit" style="rounded=0;whiteSpace=wrap;html=1;" vertex="1" parent="WIyWlLk6GJQsqaUBKTNV-1">
          <mxGeometry x="895" y="220" width="120" height="60" as="geometry" />
        </mxCell>
        <mxCell id="rqy-Io2G6okiwX-aT2eN-24" style="edgeStyle=orthogonalEdgeStyle;rounded=0;orthogonalLoop=1;jettySize=auto;html=1;entryX=1;entryY=0.5;entryDx=0;entryDy=0;" edge="1" parent="WIyWlLk6GJQsqaUBKTNV-1" source="rqy-Io2G6okiwX-aT2eN-9" target="rqy-Io2G6okiwX-aT2eN-10">
          <mxGeometry relative="1" as="geometry" />
        </mxCell>
        <mxCell id="rqy-Io2G6okiwX-aT2eN-9" value="Bestellung Abteilung&lt;br&gt;- Sub - Organisationseinheit" style="rounded=0;whiteSpace=wrap;html=1;" vertex="1" parent="WIyWlLk6GJQsqaUBKTNV-1">
          <mxGeometry x="295" y="340" width="120" height="60" as="geometry" />
        </mxCell>
        <mxCell id="rqy-Io2G6okiwX-aT2eN-26" style="edgeStyle=orthogonalEdgeStyle;rounded=0;orthogonalLoop=1;jettySize=auto;html=1;entryX=0;entryY=0.5;entryDx=0;entryDy=0;" edge="1" parent="WIyWlLk6GJQsqaUBKTNV-1" source="rqy-Io2G6okiwX-aT2eN-10" target="rqy-Io2G6okiwX-aT2eN-3">
          <mxGeometry relative="1" as="geometry">
            <mxPoint x="655" y="240" as="targetPoint" />
            <Array as="points">
              <mxPoint x="195" y="440" />
              <mxPoint x="625" y="440" />
              <mxPoint x="625" y="250" />
            </Array>
          </mxGeometry>
        </mxCell>
        <mxCell id="rqy-Io2G6okiwX-aT2eN-10" value="Produktions Abteilung" style="rounded=0;whiteSpace=wrap;html=1;" vertex="1" parent="WIyWlLk6GJQsqaUBKTNV-1">
          <mxGeometry x="135" y="340" width="120" height="60" as="geometry" />
        </mxCell>
        <mxCell id="rqy-Io2G6okiwX-aT2eN-13" value="Kunden Kontakt&amp;nbsp;&lt;br&gt;- Sub- organisationseinheit&amp;nbsp;" style="rounded=0;whiteSpace=wrap;html=1;" vertex="1" parent="WIyWlLk6GJQsqaUBKTNV-1">
          <mxGeometry x="995" y="340" width="120" height="60" as="geometry" />
        </mxCell>
        <mxCell id="rqy-Io2G6okiwX-aT2eN-14" value="Verpackung und Versand&amp;nbsp;&lt;br&gt;- Sub-organisationseinheit" style="rounded=0;whiteSpace=wrap;html=1;" vertex="1" parent="WIyWlLk6GJQsqaUBKTNV-1">
          <mxGeometry x="855" y="340" width="120" height="60" as="geometry" />
        </mxCell>
        <mxCell id="rqy-Io2G6okiwX-aT2eN-32" style="edgeStyle=orthogonalEdgeStyle;rounded=0;orthogonalLoop=1;jettySize=auto;html=1;entryX=0.417;entryY=1;entryDx=0;entryDy=0;entryPerimeter=0;endArrow=none;endFill=0;" edge="1" parent="WIyWlLk6GJQsqaUBKTNV-1" source="rqy-Io2G6okiwX-aT2eN-31" target="rqy-Io2G6okiwX-aT2eN-10">
          <mxGeometry relative="1" as="geometry" />
        </mxCell>
        <mxCell id="rqy-Io2G6okiwX-aT2eN-31" value="Anne-Marie Großmayer&lt;br&gt;- Leiterin Produktion" style="rounded=0;whiteSpace=wrap;html=1;dashed=1;" vertex="1" parent="WIyWlLk6GJQsqaUBKTNV-1">
          <mxGeometry x="65" y="450" width="120" height="60" as="geometry" />
        </mxCell>
        <mxCell id="rqy-Io2G6okiwX-aT2eN-34" style="edgeStyle=orthogonalEdgeStyle;rounded=0;orthogonalLoop=1;jettySize=auto;html=1;entryX=0.5;entryY=1;entryDx=0;entryDy=0;endArrow=none;endFill=0;" edge="1" parent="WIyWlLk6GJQsqaUBKTNV-1" source="rqy-Io2G6okiwX-aT2eN-33" target="rqy-Io2G6okiwX-aT2eN-1">
          <mxGeometry relative="1" as="geometry">
            <Array as="points">
              <mxPoint x="275" y="300" />
            </Array>
          </mxGeometry>
        </mxCell>
        <mxCell id="rqy-Io2G6okiwX-aT2eN-33" value="Franca Ribeiro&amp;nbsp;&lt;br&gt;-Sachbearbeiterin" style="rounded=0;whiteSpace=wrap;html=1;dashed=1;" vertex="1" parent="WIyWlLk6GJQsqaUBKTNV-1">
          <mxGeometry x="55" y="280" width="100" height="40" as="geometry" />
        </mxCell>
        <mxCell id="rqy-Io2G6okiwX-aT2eN-36" style="edgeStyle=orthogonalEdgeStyle;rounded=0;orthogonalLoop=1;jettySize=auto;html=1;entryX=0.5;entryY=1;entryDx=0;entryDy=0;endArrow=none;endFill=0;" edge="1" parent="WIyWlLk6GJQsqaUBKTNV-1" source="rqy-Io2G6okiwX-aT2eN-35" target="rqy-Io2G6okiwX-aT2eN-1">
          <mxGeometry relative="1" as="geometry">
            <Array as="points">
              <mxPoint x="180" y="255" />
              <mxPoint x="180" y="300" />
              <mxPoint x="275" y="300" />
            </Array>
          </mxGeometry>
        </mxCell>
        <mxCell id="rqy-Io2G6okiwX-aT2eN-35" value="Max Mustermann&amp;nbsp;&lt;br&gt;- Sachbearbeieter" style="rounded=0;whiteSpace=wrap;html=1;dashed=1;" vertex="1" parent="WIyWlLk6GJQsqaUBKTNV-1">
          <mxGeometry x="55" y="220" width="100" height="50" as="geometry" />
        </mxCell>
        <mxCell id="rqy-Io2G6okiwX-aT2eN-37" value="Antoine Kioes&amp;nbsp;&lt;br&gt;-Chief Executive Officer" style="rounded=0;whiteSpace=wrap;html=1;dashed=1;" vertex="1" parent="WIyWlLk6GJQsqaUBKTNV-1">
          <mxGeometry x="560" y="110" width="125" height="50" as="geometry" />
        </mxCell>
      </root>
    </mxGraphModel>
  </diagram>
</mxfile>
